<svg xmlns="http://www.w3.org/2000/svg" viewBox="0 0 719.72 719.72"><defs><style>.cls-1{fill:#1d11ff;}.cls-2{fill:#fff;}</style></defs><circle class="cls-1" cx="359.86" cy="359.86" r="359.86"/><path class="cls-2" d="M642.37-802.06,435-921.76l207.36-119.8a18.65,18.65,0,0,0,9.42-16.3,18.87,18.87,0,0,0-9.42-16.31l-235.64-136a18.74,18.74,0,0,0-18.85,0l-235.64,136a18.88,18.88,0,0,0-9.43,16.31v272.11a18.91,18.91,0,0,0,9.43,16.31l235.64,136.1a19.54,19.54,0,0,0,9.42,2.45,19.82,19.82,0,0,0,9.43-2.45l235.64-136.1a18.9,18.9,0,0,0,9.42-16.31A18.66,18.66,0,0,0,642.37-802.06ZM180.52-1025.25,359.6-921.76,180.52-818.36Zm197.93,342.9L199.37-785.75l179.08-103.4Zm0-272.12L199.37-1057.86l179.08-103.4Zm37.7,0v-206.79l179.09,103.4Zm0,272.12v-206.8l179.09,103.4Z" transform="translate(-37.44 1281.67)"/></svg>