<svg xmlns="http://www.w3.org/2000/svg" viewBox="0 0 460.09 100" fill="currentcolor"><defs><style>.cls-1{fill:#fff;}</style></defs><path d="M1443,445.31a52.08,52.08,0,0,1,2.45-16.62,26.37,26.37,0,0,1,7-11.45,15.88,15.88,0,0,1,11-4.16,17,17,0,0,1,6.72,1.15,13.3,13.3,0,0,1,4.37,2.93,20.5,20.5,0,0,1,2.89,3.74c.28.51.54.28.79-.67l1.76-6a2.66,2.66,0,0,1,.21-.61c.06-.1.28-.14.67-.14h2.26c.56,0,.84.26.84.79v19.88a1.17,1.17,0,0,1-.25.88,1.59,1.59,0,0,1-1,.21h-2.55q-.8,0-.84-.27c0-.18-.08-.5-.16-.94a33.43,33.43,0,0,0-2.35-7.75,17.6,17.6,0,0,0-4.23-6,8.93,8.93,0,0,0-6.23-2.35,11.44,11.44,0,0,0-8.92,3.66,21.79,21.79,0,0,0-4.73,9.88,62.11,62.11,0,0,0-1.42,13.84,72.07,72.07,0,0,0,1.21,13.81,21.1,21.1,0,0,0,4.32,9.83q3.09,3.65,8.7,3.65a10.64,10.64,0,0,0,7.66-2.89,19.44,19.44,0,0,0,4.69-7.47,41.41,41.41,0,0,0,2.22-9.57c0-.44.3-.67.83-.67h2.93c.62,0,.91.2.88.59a42.69,42.69,0,0,1-2.74,12.77,20.79,20.79,0,0,1-6.4,8.91,16.46,16.46,0,0,1-10.49,3.26,21.68,21.68,0,0,1-10.65-2.38,17.82,17.82,0,0,1-6.82-6.72,31.29,31.29,0,0,1-3.62-10.23A70.83,70.83,0,0,1,1443,445.31Z" transform="translate(-1322.76 -395.39)"/><path d="M1489.27,455.77a41.69,41.69,0,0,1,1.59-12,17.62,17.62,0,0,1,5.07-8.37,13.3,13.3,0,0,1,9.16-3.08,13.59,13.59,0,0,1,9.17,3,17.18,17.18,0,0,1,5.06,8,35.23,35.23,0,0,1,1.59,10.82,41.69,41.69,0,0,1-1.59,12,17.68,17.68,0,0,1-5.06,8.37,13.33,13.33,0,0,1-9.17,3.07,13.51,13.51,0,0,1-9.16-3,17,17,0,0,1-5.07-8A35.28,35.28,0,0,1,1489.27,455.77Zm8.37-1.67a76.56,76.56,0,0,0,.57,9.66,19.18,19.18,0,0,0,2.17,7.25,5.44,5.44,0,0,0,9.42.08,17.85,17.85,0,0,0,2.18-6.82,64.1,64.1,0,0,0,.56-8.5,78.84,78.84,0,0,0-.56-9.67,19.12,19.12,0,0,0-2.18-7.24,5.44,5.44,0,0,0-9.42-.08,17.79,17.79,0,0,0-2.17,6.82A62.23,62.23,0,0,0,1497.64,454.1Z" transform="translate(-1322.76 -395.39)"/><path d="M1527.44,462.8V439.7q0-1.26-.39-1.59a2.21,2.21,0,0,0-1.41-.34h-.75c-.53,0-.87-.1-1-.29a2.23,2.23,0,0,1-.21-1.17v-1.22a3.06,3.06,0,0,1,.25-1.65c.17-.18.69-.27,1.59-.27h7.87a1.38,1.38,0,0,1,1.13.35,1.84,1.84,0,0,1,.25,1v28.17a17,17,0,0,0,1.19,7.13,4.41,4.41,0,0,0,4.38,2.5,6.6,6.6,0,0,0,4.39-1.68,11.46,11.46,0,0,0,3.12-4.44,15.45,15.45,0,0,0,1.15-6v-21c0-.95-.15-1.43-.46-1.43h-3.14c-.48,0-.77-.1-.88-.29a3.81,3.81,0,0,1-.17-1.47v-1.84c0-.47.06-.76.17-.86a1.57,1.57,0,0,1,.84-.14h9.83c.7,0,1.1.05,1.2.17a3,3,0,0,1,.14,1.25v35.87a2.36,2.36,0,0,0,.25,1.34,1.31,1.31,0,0,0,1,.29h.92c.59,0,.93.14,1,.4a5.51,5.51,0,0,1,.15,1.61v.63a2.51,2.51,0,0,1-.35,1.57,1.93,1.93,0,0,1-1.45.4h-6.28a3.64,3.64,0,0,1-1.94-.44c-.46-.29-.69-1-.69-2v-2c0-1.42,0-2.2-.05-2.32s-.36.26-1,1.15a19.6,19.6,0,0,1-4.16,4.31,9.58,9.58,0,0,1-6.09,2.13c-2.85,0-5-.6-6.51-1.82a9.27,9.27,0,0,1-3.08-5.12A31.93,31.93,0,0,1,1527.44,462.8Z" transform="translate(-1322.76 -395.39)"/><path d="M1566.58,439.36a2,2,0,0,0-.27-1.29,1.77,1.77,0,0,0-1.24-.3h-.59q-.92,0-1.08-.33a3,3,0,0,1-.17-1.26v-1.55a2.09,2.09,0,0,1,.23-1.17c.15-.19.52-.29,1.11-.29h7.24a2.61,2.61,0,0,1,1.11.19c.26.12.4.45.4,1v1.46c0,.7.09,1.07.27,1.09s.49-.28.94-.92q2.55-3.64,6.28-3.64a5.69,5.69,0,0,1,5.69,5.94,5,5,0,0,1-1.28,3.63,4.65,4.65,0,0,1-3.49,1.31,3.89,3.89,0,0,1-3.2-1.31,4.61,4.61,0,0,1-1.07-3c0-.19,0-.34,0-.44a2.85,2.85,0,0,0,0-.31c0-.33-.15-.5-.46-.5-.53,0-1.15.84-1.86,2.53s-1.07,4.7-1.07,9v21.14a3.23,3.23,0,0,0,.19,1.34c.13.25.51.37,1.15.37h1.34c.53,0,.84.11.94.32a2.85,2.85,0,0,1,.15,1.11v1.88a1.94,1.94,0,0,1-.19,1c-.13.18-.42.27-.9.27H1564.4a2.25,2.25,0,0,1-.86-.13c-.21-.08-.31-.3-.31-.67v-2.63a1,1,0,0,1,1.17-1.18h.46a2.42,2.42,0,0,0,1.34-.27,1.43,1.43,0,0,0,.38-1.19Z" transform="translate(-1322.76 -395.39)"/><path d="M1609.15,446.19a26.29,26.29,0,0,0-3.19-7,5.1,5.1,0,0,0-4.35-2.35,4.77,4.77,0,0,0-3.1,1.09,4.57,4.57,0,0,0-1.34,3.72,6.84,6.84,0,0,0,1.87,4.8,25.57,25.57,0,0,0,4.6,3.87c1.83,1.23,3.66,2.55,5.48,4a19.92,19.92,0,0,1,4.61,5,13,13,0,0,1,1.86,7.14q0,5.89-2.85,8.55a10.3,10.3,0,0,1-7.36,2.66,9.67,9.67,0,0,1-4.88-1.19,12.88,12.88,0,0,1-3.66-3.2c-.78-.95-1.36-.88-1.72.21l-1,3a1.45,1.45,0,0,1-1.55,1h-1.92c-.7,0-1-.37-1-1.13V463.51a1.66,1.66,0,0,1,.23-1,1.23,1.23,0,0,1,.94-.27h2.55a1.14,1.14,0,0,1,1,.31,3,3,0,0,1,.39.82q3.22,10,9.17,10a4.57,4.57,0,0,0,3.5-1.36,5.51,5.51,0,0,0,1.27-3.91,7,7,0,0,0-1.29-4.25,16,16,0,0,0-3.35-3.31c-1.37-1-2.82-2-4.36-3.08a32.77,32.77,0,0,1-4.35-3.51,16,16,0,0,1-3.35-4.67,14.87,14.87,0,0,1-1.3-6.47,11.19,11.19,0,0,1,2.62-7.63,8.83,8.83,0,0,1,7-3,7.38,7.38,0,0,1,4.27,1.2,9.38,9.38,0,0,1,2.81,2.91c.33.53.57.83.73.89s.34-.27.56-1l1-2.89a1.48,1.48,0,0,1,.47-.75,2.1,2.1,0,0,1,1-.17H1613q1.08,0,1.08,1.17v12.85c0,.45-.08.73-.25.86a1.66,1.66,0,0,1-1,.19h-2.34c-.59,0-.93-.1-1-.29A6.76,6.76,0,0,1,1609.15,446.19Z" transform="translate(-1322.76 -395.39)"/><path d="M1619.78,455.77a44.9,44.9,0,0,1,1.46-12,17,17,0,0,1,4.9-8.37q3.43-3.07,9.33-3.08a11.69,11.69,0,0,1,7,1.91,12.08,12.08,0,0,1,4,5,24.6,24.6,0,0,1,1.86,6.88,59.25,59.25,0,0,1,.48,7.5c0,.55-.1.89-.31,1a2.51,2.51,0,0,1-1.19.19h-17.71c-.92,0-1.38.4-1.38,1.21a69.56,69.56,0,0,0,.5,8.58,14.14,14.14,0,0,0,2.2,6.39,5.9,5.9,0,0,0,5.17,2.4,6.65,6.65,0,0,0,4.6-1.53,9.11,9.11,0,0,0,2.56-3.89,19.55,19.55,0,0,0,1-4.79,1,1,0,0,1,1.13-1h2.43q.63,0,.75.21a1.05,1.05,0,0,1,.09.66,25.17,25.17,0,0,1-1.55,7,11.75,11.75,0,0,1-4.1,5.4c-1.9,1.4-4.55,2.09-8,2.09a15.36,15.36,0,0,1-7.75-1.73,12.09,12.09,0,0,1-4.66-4.75,21.22,21.22,0,0,1-2.29-6.95A53.9,53.9,0,0,1,1619.78,455.77Zm9.79-4.52h10.13a2.32,2.32,0,0,0,1-.13q.18-.12.18-.54c0-1.39,0-2.92-.12-4.58a30.15,30.15,0,0,0-.63-4.77,9.31,9.31,0,0,0-1.65-3.75,3.89,3.89,0,0,0-3.25-1.47,4.88,4.88,0,0,0-4.29,2.18,13.55,13.55,0,0,0-2,5.44,40.26,40.26,0,0,0-.54,6.57,1.22,1.22,0,0,0,.21.84A1.46,1.46,0,0,0,1629.57,451.25Z" transform="translate(-1322.76 -395.39)"/><path d="M1665.48,420.32v19.21a3.54,3.54,0,0,0,.36,2c.23.28.91.42,2,.42h16.32c1.09,0,1.73-.17,1.93-.51a5.15,5.15,0,0,0,.29-2.17V420.7c0-.9,0-1.48,0-1.76s-.47-.42-1.36-.42H1682a1.29,1.29,0,0,1-1.15-.42,2.24,2.24,0,0,1-.27-1.21v-1.22a2.36,2.36,0,0,1,.29-1.44,2,2,0,0,1,1.38-.32h15.49a2.5,2.5,0,0,1,1.34.25c.22.17.33.62.33,1.34v1.6a1.49,1.49,0,0,1-.33,1.15,2.2,2.2,0,0,1-1.3.27h-1.09a4.14,4.14,0,0,0-1.84.27c-.3.18-.46.73-.46,1.65v50.23a1.52,1.52,0,0,0,.32,1.15,2,2,0,0,0,1.23.27h1.84a2.8,2.8,0,0,1,1.24.21c.26.14.39.52.39,1.13v1.43c0,.86-.14,1.38-.44,1.57a3.45,3.45,0,0,1-1.65.27h-15.07c-.75,0-1.22-.11-1.4-.34a2.68,2.68,0,0,1-.27-1.5V473.6a2.48,2.48,0,0,1,.19-1.19c.12-.21.46-.32,1-.32h3.73a.7.7,0,0,0,.75-.46,5.4,5.4,0,0,0,.17-1.63V448.57c0-.89-.13-1.45-.4-1.67a2.69,2.69,0,0,0-1.65-.34h-16.91a3,3,0,0,0-1.61.27c-.24.19-.36.68-.36,1.49v22.1a2.32,2.32,0,0,0,.27,1.32c.19.24.62.35,1.32.35H1670a1.69,1.69,0,0,1,1.11.26q.27.24.27,1.17v1.09a2.75,2.75,0,0,1-.35,1.75,2.81,2.81,0,0,1-1.74.34h-15.07a2.09,2.09,0,0,1-1.36-.3c-.21-.19-.31-.65-.31-1.38v-1.17a2.2,2.2,0,0,1,.31-1.44,2.11,2.11,0,0,1,1.4-.32h1.59a3,3,0,0,0,1.36-.21c.24-.14.36-.54.36-1.21V420.15a1.82,1.82,0,0,0-.34-1.32,1.92,1.92,0,0,0-1.29-.31H1654c-.7,0-1.12-.14-1.25-.42a3.73,3.73,0,0,1-.21-1.51V415.5c0-.67.12-1.1.37-1.29a2.14,2.14,0,0,1,1.3-.3h15.49a2.87,2.87,0,0,1,1.25.21c.28.14.42.52.42,1.13v1.68a2,2,0,0,1-.29,1.3,1.9,1.9,0,0,1-1.26.29h-2.68a1.89,1.89,0,0,0-1.34.33A2.5,2.5,0,0,0,1665.48,420.32Z" transform="translate(-1322.76 -395.39)"/><path d="M1705.41,437.77H1704c-.42,0-.67-.06-.76-.19a1.72,1.72,0,0,1-.12-.81v-2.51c0-.73.33-1.09,1-1.09h9.08c.54,0,.8.29.8.88v37c0,.67.29,1,.88,1h1.46a1.75,1.75,0,0,1,.8.13c.14.08.21.32.21.71v2.76a2,2,0,0,1-.11.8q-.11.21-.69.21h-12.13a2.21,2.21,0,0,1-1-.17c-.19-.11-.29-.39-.29-.84v-2.34c0-.56.1-.91.31-1.05a2,2,0,0,1,1.07-.21h1c.48,0,.76-.08.84-.25a2.31,2.31,0,0,0,.13-.92V438.78A.9.9,0,0,0,1705.41,437.77Zm-.67-19.67a4.82,4.82,0,0,1,1.49-3.56,5,5,0,0,1,7.09,0,5,5,0,0,1,0,7.1,5,5,0,0,1-7.09,0A4.84,4.84,0,0,1,1704.74,418.1Z" transform="translate(-1322.76 -395.39)"/><path d="M1737.52,462.26l6.23-23.11a2.07,2.07,0,0,0,.09-1.11c-.09-.18-.28-.27-.59-.27H1741c-.45,0-.71-.08-.78-.25a3.26,3.26,0,0,1-.1-1V434.3c0-.76.32-1.13,1-1.13h9.59a2.11,2.11,0,0,1,1.19.23c.21.15.31.55.31,1.19v2.22c0,.45-.09.72-.27.82a2.43,2.43,0,0,1-1,.14h-1.05c-.61,0-1,.08-1.06.23a4.49,4.49,0,0,0-.36.9l-10,37.84c-.09.53-.62.79-1.59.79H1735c-1,0-1.52-.26-1.63-.79L1723,438.65a1,1,0,0,0-.63-.75,4.61,4.61,0,0,0-1.3-.13h-1.25a.89.89,0,0,1-1-1v-2.14c0-.64.16-1,.46-1.21a2.73,2.73,0,0,1,1.3-.25h13.06a1.34,1.34,0,0,1,.92.23,1.28,1.28,0,0,1,.25.94v2.09c0,.67-.12,1.06-.37,1.17a3.73,3.73,0,0,1-1.39.17h-.67c-.86,0-1.2.42-1,1.26l5.48,23.1a3.14,3.14,0,0,1,.17,1.09c0,.22,0,.34.17.34s.21-.11.21-.32A4,4,0,0,1,1737.52,462.26Z" transform="translate(-1322.76 -395.39)"/><path d="M1753.8,455.77a44.9,44.9,0,0,1,1.46-12,17,17,0,0,1,4.9-8.37q3.43-3.07,9.33-3.08a11.69,11.69,0,0,1,7,1.91,12.08,12.08,0,0,1,4,5,24.6,24.6,0,0,1,1.86,6.88,59.25,59.25,0,0,1,.48,7.5c0,.55-.1.89-.31,1a2.51,2.51,0,0,1-1.19.19h-17.71c-.92,0-1.38.4-1.38,1.21a69.56,69.56,0,0,0,.5,8.58A14.14,14.14,0,0,0,1765,471a5.9,5.9,0,0,0,5.17,2.4,6.64,6.64,0,0,0,4.6-1.53,9.11,9.11,0,0,0,2.56-3.89,19.1,19.1,0,0,0,1-4.79,1,1,0,0,1,1.13-1h2.43c.42,0,.67.07.76.21a1.14,1.14,0,0,1,.08.66,25.17,25.17,0,0,1-1.55,7,11.69,11.69,0,0,1-4.1,5.4c-1.9,1.4-4.55,2.09-8,2.09a15.36,15.36,0,0,1-7.75-1.73,12.09,12.09,0,0,1-4.66-4.75,21.22,21.22,0,0,1-2.29-6.95A53.9,53.9,0,0,1,1753.8,455.77Zm9.79-4.52h10.13a2.32,2.32,0,0,0,1-.13q.18-.12.18-.54c0-1.39,0-2.92-.12-4.58a29,29,0,0,0-.63-4.77,9.18,9.18,0,0,0-1.65-3.75,3.89,3.89,0,0,0-3.25-1.47,4.88,4.88,0,0,0-4.29,2.18,13.4,13.4,0,0,0-2,5.44,40.26,40.26,0,0,0-.54,6.57,1.22,1.22,0,0,0,.21.84A1.46,1.46,0,0,0,1763.59,451.25Z" transform="translate(-1322.76 -395.39)"/><circle cx="50" cy="50" r="50"/><path class="cls-1" d="M1399.84,458.63l-22.92-13.23,22.92-13.25a2,2,0,0,0,1-1.8,2.07,2.07,0,0,0-1-1.8l-26-15a2.06,2.06,0,0,0-2.09,0l-26,15a2.07,2.07,0,0,0-1,1.8v30.08a2.07,2.07,0,0,0,1,1.8l26,15a2.16,2.16,0,0,0,2.09,0l26-15a2.07,2.07,0,0,0,1-1.8A2,2,0,0,0,1399.84,458.63Zm-51-24.67,19.8,11.44-19.8,11.42Zm21.88,37.9-19.79-11.43L1370.67,449Zm0-30.08-19.79-11.43,19.79-11.43Zm4.17,0V418.92l19.79,11.43Zm0,30.08V449l19.79,11.43Z" transform="translate(-1322.76 -395.39)"/></svg>